<?xml version="1.0" encoding="UTF-8" standalone="no"?>
<!-- Created with Inkscape (http://www.inkscape.org/) -->

<svg
   width="10"
   height="10"
   viewBox="0 0 2.6458333 2.6458333"
   version="1.1"
   id="svg1"
   xml:space="preserve"
   sodipodi:docname="sze1px.4x4cm.svg"
   xmlns:inkscape="http://www.inkscape.org/namespaces/inkscape"
   xmlns:sodipodi="http://sodipodi.sourceforge.net/DTD/sodipodi-0.dtd"
   xmlns="http://www.w3.org/2000/svg"
   xmlns:svg="http://www.w3.org/2000/svg"><sodipodi:namedview
     id="namedview1"
     pagecolor="#ffffff"
     bordercolor="#000000"
     borderopacity="0.25"
     inkscape:showpageshadow="2"
     inkscape:pageopacity="0.0"
     inkscape:pagecheckerboard="0"
     inkscape:deskcolor="#d1d1d1"
     inkscape:document-units="px" /><defs
     id="defs1" /><g
     id="layer1"
     transform="matrix(0.06253893,0,0,0.06260214,0.08464708,0.06457044)"><g
       id="g17"
       transform="matrix(0.15482928,0,0,0.15482928,3.4139679,-1.0357135)"><path
         style="opacity:1;fill:#000000;fill-opacity:0;stroke:#000000;stroke-width:0.1;stroke-dasharray:none;stroke-opacity:1"
         d="M 125.75676,8.2181466 C 126.9403,51.871342 102.55714,84.772099 41.664093,92.884169"
         id="path1" /><path
         style="fill:#000000;fill-opacity:0;stroke:#000000;stroke-width:0.1;stroke-dasharray:none;stroke-opacity:1"
         d="M 147.31112,8.5684728 C 152.40034,56.127344 108.6979,110.03507 42.577532,112.91982"
         id="path1-8" /><path
         style="opacity:1;fill:#000000;fill-opacity:0;stroke:#000000;stroke-width:0.1;stroke-dasharray:none;stroke-opacity:1"
         d="m 170.66988,13.187259 39.94402,0.191119"
         id="path2" /><path
         style="fill:#000000;fill-opacity:0;stroke:#000000;stroke-width:0.1;stroke-dasharray:none;stroke-opacity:1"
         d="m 170.53827,33.299114 39.94402,0.191119"
         id="path2-1" /><path
         style="fill:#000000;fill-opacity:0;stroke:#000000;stroke-width:0.1;stroke-dasharray:none;stroke-opacity:1"
         d="m 170.56696,53.157213 39.94402,0.191119"
         id="path2-1-7" /><path
         style="fill:#000000;fill-opacity:0;stroke:#000000;stroke-width:0.1;stroke-dasharray:none;stroke-opacity:1"
         d="m 170.36206,72.870672 39.94402,0.191119"
         id="path2-1-7-6" /><path
         style="fill:#000000;fill-opacity:0;stroke:#000000;stroke-width:0.1;stroke-dasharray:none;stroke-opacity:1"
         d="m 170.4074,92.535938 39.94402,0.191119"
         id="path2-1-7-6-2" /><path
         style="fill:#000000;fill-opacity:0;stroke:#000000;stroke-width:0.1;stroke-dasharray:none;stroke-opacity:1"
         d="m 170.53827,112.23504 39.94402,0.19112"
         id="path2-1-7-6-2-7" /><path
         style="fill:#000000;fill-opacity:0;stroke:#000000;stroke-width:0.1;stroke-dasharray:none;stroke-opacity:1"
         d="m 170.4074,131.88882 39.94402,0.19112"
         id="path2-1-7-6-2-7-6" /><path
         style="fill:#000000;fill-opacity:0;stroke:#000000;stroke-width:0.1;stroke-dasharray:none;stroke-opacity:1"
         d="m 170.64271,152.08554 39.94402,0.19112"
         id="path2-1-7-6-2-7-6-0" /><path
         style="fill:#000000;fill-opacity:0;stroke:#000000;stroke-width:0.1;stroke-dasharray:none;stroke-opacity:1"
         d="m 170.39247,171.79671 39.94402,0.19112"
         id="path2-1-7-6-2-7-6-0-1" /><path
         style="opacity:1;fill:#000000;fill-opacity:0;stroke:#000000;stroke-width:0.1;stroke-dasharray:none;stroke-opacity:1"
         d="M 3.057915,132.25482 150.02896,131.87259"
         id="path3" /><path
         style="fill:#000000;fill-opacity:0;stroke:#000000;stroke-width:0.1;stroke-dasharray:none;stroke-opacity:1"
         d="M 2.8990518,171.69568 149.8701,171.31345"
         id="path3-7" /><path
         style="fill:#000000;fill-opacity:0;stroke:#000000;stroke-width:0.0857807;stroke-dasharray:none;stroke-opacity:1"
         d="M 42.346307,152.00779 150.32838,151.62498"
         id="path3-7-0" /><path
         style="opacity:1;fill:#000000;fill-opacity:0;stroke:#000000;stroke-width:0.1;stroke-dasharray:none;stroke-opacity:1"
         d="m 20.406446,211.09185 -3.243409,-1.48657 -3.37855,-0.6757 h -3.513693 l -2.1622722,0.27028 -1.6217045,1.08114 -1.0811362,1.6217 0.135142,1.89199 0.2702841,1.75685 1.7568463,1.75684 2.0271305,0.81085 2.973125,1.08114 2.567698,1.08114 1.621704,0.94599 1.486563,1.35142 0.67571,0.67571 0.135142,0.67571 v 2.02713 l -0.67571,1.75685 -1.891989,1.21628 -1.486562,0.40542 h -2.02713 l -2.432557,0.13514 -1.6217041,-0.40542 -3.2434087,-1.08114 -2.7028405,-1.21628 -0.9459943,-0.67571"
         id="path4" /><path
         style="opacity:1;fill:#000000;fill-opacity:0;stroke:#000000;stroke-width:0.0974481;stroke-dasharray:none;stroke-opacity:1"
         d="m 24.595662,209.85268 19.460794,-0.38499 -18.244495,20.27621 20.136516,-0.38499"
         id="path5" /><path
         style="opacity:1;fill:#000000;fill-opacity:0;stroke:#000000;stroke-width:0.1;stroke-dasharray:none;stroke-opacity:1"
         d="m 60.273345,203.11847 2.297414,-3.64884"
         id="path6" /><path
         style="opacity:1;fill:#000000;fill-opacity:0;stroke:#000000;stroke-width:0.1;stroke-dasharray:none;stroke-opacity:1"
         d="M 69.598145,208.92958 53.516244,209.335 v 9.73023 l 12.973634,-0.13515 -13.108776,0.13515 0.135142,10.40593 16.217042,0.13515"
         id="path8" /><path
         style="fill:#000000;fill-opacity:0;stroke:#000000;stroke-width:0.1;stroke-dasharray:none;stroke-opacity:1"
         d="m 96.122773,241.73451 -16.081901,0.40542 v 9.73023 l 12.973634,-0.13515 -13.108776,0.13515 0.135142,10.40593 16.217042,0.13515"
         id="path8-6" /><path
         style="fill:#000000;fill-opacity:0;stroke:#000000;stroke-width:0.1;stroke-dasharray:none;stroke-opacity:1"
         d="m 142.01277,241.73939 -16.0819,0.40542 v 9.73023 l 12.97364,-0.13515 -13.10878,0.13515 0.13514,10.40593 16.21704,0.13515"
         id="path8-6-1" /><path
         style="fill:#000000;fill-opacity:0;stroke:#000000;stroke-width:0.1;stroke-dasharray:none;stroke-opacity:1"
         d="M 21.098271,241.62545 5.01637,242.03087 v 9.73023 l 12.973634,-0.13515 -13.108776,0.13515 0.135142,10.40593 16.217042,0.13515"
         id="path8-9" /><path
         style="fill:#000000;fill-opacity:0;stroke:#000000;stroke-width:0.1;stroke-dasharray:none;stroke-opacity:1"
         d="m 146.50437,209.06192 -16.0819,0.40542 v 9.73023 l 12.97363,-0.13515 -13.10877,0.13515 0.13514,10.40593 16.21704,0.13515"
         id="path8-3" /><path
         style="opacity:1;fill:#000000;fill-opacity:0;stroke:#000000;stroke-width:0.1;stroke-dasharray:none;stroke-opacity:1"
         d="m 94.317567,212.28619 -2.006758,-1.57673 -1.720078,-1.14672 -1.767856,-0.62114 -2.675675,-0.43002 -2.819016,0.4778 -2.675676,0.9556 -2.866795,2.05454 -1.958978,2.72345 -0.573357,3.01013 v 2.67568 l 0.907817,2.96236 1.958978,3.20125 1.911196,1.81564 2.006756,1.24228 2.819017,0.33446 2.150097,-0.38224 2.819016,-0.9556 1.863415,-1.05116 2.388997,-1.57674"
         id="path9" /><path
         style="opacity:1;fill:#000000;fill-opacity:0;stroke:#000000;stroke-width:0.0911179;stroke-dasharray:none;stroke-opacity:1"
         d="m 101.76167,208.569 0.0676,21.03706 v -10.26609 l 17.63659,0.11221 0.0676,-10.99538 -0.0676,20.86877"
         id="path10" /><path
         style="opacity:1;fill:#000000;fill-opacity:0;stroke:#000000;stroke-width:0.1;stroke-dasharray:none;stroke-opacity:1"
         d="m 154.73762,231.70101 -0.20271,-24.66342 18.1766,24.73099 -0.40542,-24.86614"
         id="path11" /><path
         style="opacity:1;fill:#000000;fill-opacity:0;stroke:#000000;stroke-width:0.1;stroke-dasharray:none;stroke-opacity:1"
         d="m 180.61732,206.63216 8.78423,15.47376 9.73023,-15.54133 -9.66266,15.40619 0.40543,9.7978"
         id="path12" /><path
         style="fill:#000000;fill-opacity:0;stroke:#000000;stroke-width:0.08834;stroke-dasharray:none;stroke-opacity:1"
         d="m 54.248093,241.28208 8.220902,12.90313 9.106238,-12.95949 -9.043,12.84681 0.37943,8.17011"
         id="path12-7" /><path
         style="opacity:1;fill:#000000;fill-opacity:0;stroke:#000000;stroke-width:0.1;stroke-dasharray:none;stroke-opacity:1"
         d="m 207.37544,206.56459 -0.20271,25.47427"
         id="path13" /><path
         style="opacity:1;fill:#000000;fill-opacity:0;stroke:#000000;stroke-width:0.1;stroke-dasharray:none;stroke-opacity:1"
         d="m 47.096997,244.13407 -2.162273,-1.1487 -1.689275,-0.81086 -2.567699,-0.81085 -2.364986,-0.0676 -2.635268,0.54057 -2.364986,1.08113 -1.756847,1.14871 -1.891988,1.68928 -1.148707,2.16227 -0.675711,2.77041 v 2.22985 l 0.54057,2.97312 0.81085,1.75685 1.554133,1.82441 1.621706,1.68928 1.824418,0.74328 2.432556,0.60814 2.770412,-0.27028 2.094701,-0.33786 1.824416,-0.54057 2.297416,-1.01356 0.675709,-0.473 0.06757,-7.50038"
         id="path14" /><path
         style="opacity:1;fill:#000000;fill-opacity:0;stroke:#000000;stroke-width:0.1;stroke-dasharray:none;stroke-opacity:1"
         d="m 100.52896,241.57529 h 19.30308"
         id="path15" /><path
         style="opacity:1;fill:#000000;fill-opacity:0;stroke:#000000;stroke-width:0.1;stroke-dasharray:none;stroke-opacity:1"
         d="m 100.33784,241.67085 h 20.16312 l -10.32046,-0.0956 -0.0956,22.16988"
         id="path16" /><path
         style="opacity:1;fill:#000000;fill-opacity:0;stroke:#000000;stroke-width:0.0955136;stroke-dasharray:none;stroke-opacity:1"
         d="m 150.88594,263.05168 -0.0956,-21.87577 11.18351,18.38959 11.75702,-18.73821 -0.0956,22.31154"
         id="path17" /></g></g></svg>
